<?xml version="1.0" standalone="no"?>
<!DOCTYPE svg PUBLIC "-//W3C//DTD SVG 1.0//EN" "http://www.w3.org/TR/2001/REC-SVG-20010904/DTD/svg10.dtd">
<svg width="4in" height="4in" viewBox="0 0 400 400">
<g style="fill: none; stroke: #CCCCCC; stroke-width: 1;">
<line x1="20" y1="20" x2="380" y2="20" />
<line x1="20" y1="20" x2="20" y2="380" />
<line x1="20" y1="40" x2="380" y2="40" />
<line x1="40" y1="20" x2="40" y2="380" />
<line x1="20" y1="60" x2="380" y2="60" />
<line x1="60" y1="20" x2="60" y2="380" />
<line x1="20" y1="80" x2="380" y2="80" />
<line x1="80" y1="20" x2="80" y2="380" />
<line x1="20" y1="100" x2="380" y2="100" />
<line x1="100" y1="20" x2="100" y2="380" />
<line x1="20" y1="120" x2="380" y2="120" />
<line x1="120" y1="20" x2="120" y2="380" />
<line x1="20" y1="140" x2="380" y2="140" />
<line x1="140" y1="20" x2="140" y2="380" />
<line x1="20" y1="160" x2="380" y2="160" />
<line x1="160" y1="20" x2="160" y2="380" />
<line x1="20" y1="180" x2="380" y2="180" />
<line x1="180" y1="20" x2="180" y2="380" />
<line x1="20" y1="200" x2="380" y2="200" />
<line x1="200" y1="20" x2="200" y2="380" />
<line x1="20" y1="220" x2="380" y2="220" />
<line x1="220" y1="20" x2="220" y2="380" />
<line x1="20" y1="240" x2="380" y2="240" />
<line x1="240" y1="20" x2="240" y2="380" />
<line x1="20" y1="260" x2="380" y2="260" />
<line x1="260" y1="20" x2="260" y2="380" />
<line x1="20" y1="280" x2="380" y2="280" />
<line x1="280" y1="20" x2="280" y2="380" />
<line x1="20" y1="300" x2="380" y2="300" />
<line x1="300" y1="20" x2="300" y2="380" />
<line x1="20" y1="320" x2="380" y2="320" />
<line x1="320" y1="20" x2="320" y2="380" />
<line x1="20" y1="340" x2="380" y2="340" />
<line x1="340" y1="20" x2="340" y2="380" />
<line x1="20" y1="360" x2="380" y2="360" />
<line x1="360" y1="20" x2="360" y2="380" />
<line x1="20" y1="380" x2="380" y2="380" />
<line x1="380" y1="20" x2="380" y2="380" />
</g>

<g style="fill: none; stroke: #333333; stroke-width: 2;">
<line x1="20" y1="20" x2="20" y2="380" />
<line x1="20" y1="380" x2="380" y2="380" />
</g>

<polyline points="20 380 40 379 60 376 80 371 100 364 120 355 140 344 160 331 180 316 200 299 220 280 240 259 260 236 280 211 300 184 320 155 340 124 360 91 380 56" style="fill: none; stroke: #CC0000; stroke-opacity: 0.6; stroke-width: 3;" />
<polyline points="20 380 40 370 60 360 80 350 100 340 120 330 140 320 160 310 180 300 200 290 220 280 240 270 260 260 280 250 300 240 320 230 340 220 360 210 380 200" style="fill: none; stroke: #009900; stroke-opacity: 0.6; stroke-width: 3;" />
<polyline points="20 380 40 351 60 321 80 292 100 264 120 237 140 211 160 187 180 165 200 146 220 128 240 113 260 101 280 91 300 85 320 81 340 81 360 83 380 88" style="fill: none; stroke: #0000CC; stroke-opacity: 0.6; stroke-width: 3;" />
</svg>
